# xmcd
#
# Track frame offsets: 
#        150
#        33528
#        52598
#        93273
#        114424
#        144962
#        168375
#        196824
#        218290
#        244030
#        272853
#        293161
#        323760
#
# Disc length: 4540 seconds
#
# Revision: 1
# Processed by: cddbd v1.5.2PL0 Copyright (c) Steve Scherf et al.
# Submitted via: ExactAudioCopy v0.95b4
#
DISCID=a911ba0d
DTITLE=Various Artist - Ночное Кафе CD7
DYEAR=2002
DGENRE=
TTITLE0=Banco De Gaya - Heliopolis
TTITLE1=Mellow Man Ace - If You Were Mine
TTITLE2=Grover Washington Jr. - Mister Magic
TTITLE3=Ottmar Liebert - Surrender 2 Love
TTITLE4=Hidden Agenda - Is It Love
TTITLE5=Night Trains - Lonely Road
TTITLE6=Sandro Comini and the Sagittarius Trio - Grunge Street
TTITLE7=Santana - Samba Pa Ti
TTITLE8=Soul Etico - Two Hearts Together
TTITLE9=Snowboy - Lucky Fellow
TTITLE10=Shahin and Sepehr - Middle Of The Night
TTITLE11=Static Sound System - Secret Love
TTITLE12=The Starseeds - Behind The Sun
EXTD=
EXTT0=
EXTT1=
EXTT2=
EXTT3=
EXTT4=
EXTT5=
EXTT6=
EXTT7=
EXTT8=
EXTT9=
EXTT10=
EXTT11=
EXTT12=
PLAYORDER=
